<svg xmlns="http://www.w3.org/2000/svg" viewBox="0 0 500 500">
  <defs>
    <linearGradient id="logo-grad" x1="0%" y1="0%" x2="100%" y2="100%">
      <stop offset="0%" style="stop-color:#4A90E2;stop-opacity:1" />
      <stop offset="100%" style="stop-color:#50E3C2;stop-opacity:1" />
    </linearGradient>
  </defs>
  <!-- Background Circle (Ring) -->
  <path d="M403.4,324.7 C431.1,281.2 431.1,224.8 403.4,181.3 C375.7,137.8 326.3,111.4 273,111.4 C219.7,111.4 170.3,137.8 142.6,181.3 C114.9,224.8 114.9,281.2 142.6,324.7 C170.3,368.2 219.7,394.6 273,394.6 C303.1,394.6 332.1,385.9 356.5,369.4 L400,410 L410,400 L369.5,360 C383.5,349.5 395.2,337.8 403.4,324.7 Z" fill="url(#logo-grad)"/>
  <!-- Inner stylized mark -->
  <path d="M250,180 C220,180 190,210 190,250 C190,290 220,320 250,320 C280,320 310,290 310,250 C310,210 280,180 250,180 Z M250,210 C270,210 280,230 280,250 C280,270 270,290 250,290 C230,290 220,270 220,250 C220,230 230,210 250,210 Z" fill="#FFFFFF" fill-opacity="0.2"/>
</svg>
